<svg xmlns="http://www.w3.org/2000/svg" xmlns:xlink="http://www.w3.org/1999/xlink" width="500" zoomAndPan="magnify" viewBox="0 0 375 374.999991" height="500" preserveAspectRatio="xMidYMid meet" version="1.0"><defs><g/><clipPath id="90ed98fc63"><path d="M 80.378906 37.5 L 291.878906 37.5 L 291.878906 249 L 80.378906 249 Z M 80.378906 37.5 " clip-rule="nonzero"/></clipPath><clipPath id="fc5ef6b808"><path d="M 156 201 L 182 201 L 182 226.417969 L 156 226.417969 Z M 156 201 " clip-rule="nonzero"/></clipPath><clipPath id="ed96064b2d"><path d="M 244 114 L 269.300781 114 L 269.300781 139 L 244 139 Z M 244 114 " clip-rule="nonzero"/></clipPath><clipPath id="1808964601"><path d="M 217 120 L 269.300781 120 L 269.300781 173 L 217 173 Z M 217 120 " clip-rule="nonzero"/></clipPath><clipPath id="b9bfc9d759"><path d="M 163 174 L 216 174 L 216 226.417969 L 163 226.417969 Z M 163 174 " clip-rule="nonzero"/></clipPath></defs><g clip-path="url(#90ed98fc63)"><path fill="#d8b278" d="M 186.054688 248.847656 C 127.671875 248.847656 80.378906 201.230469 80.378906 143.175781 C 80.378906 85.117188 127.671875 37.5 186.054688 37.5 C 244.433594 37.5 291.726562 84.792969 291.726562 143.175781 C 291.726562 201.554688 244.109375 248.847656 186.054688 248.847656 Z M 186.054688 44.023438 C 131.257812 44.023438 86.902344 88.378906 86.902344 143.175781 C 86.902344 197.96875 131.257812 242.324219 186.054688 242.324219 C 240.847656 242.324219 285.203125 197.96875 285.203125 143.175781 C 285.203125 88.378906 240.519531 44.023438 186.054688 44.023438 Z M 186.054688 44.023438 " fill-opacity="1" fill-rule="nonzero"/></g><path fill="#d8b278" d="M 142.207031 112.027344 L 154.90625 99.328125 L 143.617188 88.039062 C 142.449219 86.871094 140.53125 86.871094 139.363281 88.039062 L 130.917969 96.484375 C 129.75 97.652344 129.75 99.570312 130.917969 100.738281 Z M 142.207031 112.027344 " fill-opacity="1" fill-rule="nonzero"/><path fill="#d8b278" d="M 163.335938 133.164062 L 176.039062 120.457031 L 208.796875 153.214844 L 196.09375 165.921875 Z M 163.335938 133.164062 " fill-opacity="1" fill-rule="nonzero"/><path fill="#d8b278" d="M 229.949219 174.375 L 217.253906 187.070312 L 228.484375 198.300781 C 229.648438 199.46875 231.566406 199.46875 232.734375 198.300781 L 241.179688 189.855469 C 242.347656 188.6875 242.347656 186.769531 241.179688 185.601562 Z M 229.949219 174.375 " fill-opacity="1" fill-rule="nonzero"/><g clip-path="url(#fc5ef6b808)"><path fill="#d8b278" d="M 157.871094 212.554688 C 156.703125 213.722656 156.703125 215.640625 157.871094 216.808594 L 166.3125 225.253906 C 167.480469 226.417969 169.398438 226.417969 170.566406 225.253906 L 181.828125 214.023438 L 169.128906 201.324219 Z M 157.871094 212.554688 " fill-opacity="1" fill-rule="nonzero"/></g><path fill="#d8b278" d="M 190.328125 180.136719 L 223.066406 147.398438 L 235.769531 160.105469 L 203.035156 192.839844 Z M 190.328125 180.136719 " fill-opacity="1" fill-rule="nonzero"/><g clip-path="url(#ed96064b2d)"><path fill="#d8b278" d="M 268.132812 127.6875 C 269.300781 126.519531 269.300781 124.601562 268.132812 123.433594 L 259.6875 114.992188 C 258.519531 113.824219 256.601562 113.824219 255.433594 114.992188 L 244.203125 126.25 L 256.902344 138.949219 Z M 268.132812 127.6875 " fill-opacity="1" fill-rule="nonzero"/></g><path fill="#d8b278" d="M 103.964844 158.652344 C 102.800781 159.820312 102.800781 161.738281 103.964844 162.90625 L 112.410156 171.347656 C 113.578125 172.515625 115.496094 172.515625 116.664062 171.347656 L 127.921875 160.121094 L 115.226562 147.421875 Z M 103.964844 158.652344 " fill-opacity="1" fill-rule="nonzero"/><path fill="#d8b278" d="M 136.410156 126.234375 L 169.144531 93.496094 L 181.851562 106.203125 L 149.113281 138.9375 Z M 136.410156 126.234375 " fill-opacity="1" fill-rule="nonzero"/><path fill="#d8b278" d="M 214.226562 73.785156 C 215.394531 72.617188 215.394531 70.699219 214.226562 69.53125 L 205.785156 61.085938 C 204.617188 59.917969 202.699219 59.917969 201.53125 61.085938 L 190.300781 72.347656 L 203 85.042969 Z M 214.226562 73.785156 " fill-opacity="1" fill-rule="nonzero"/><path fill="#d8b278" d="M 196.082031 111.996094 L 208.777344 99.300781 L 170.566406 61.085938 C 169.398438 59.917969 167.480469 59.917969 166.3125 61.085938 L 157.871094 69.53125 C 156.703125 70.699219 156.703125 72.617188 157.871094 73.785156 Z M 196.082031 111.996094 " fill-opacity="1" fill-rule="nonzero"/><g clip-path="url(#1808964601)"><path fill="#d8b278" d="M 229.917969 120.441406 L 217.253906 133.167969 L 255.433594 171.347656 C 256.601562 172.515625 258.519531 172.515625 259.6875 171.347656 L 268.132812 162.90625 C 269.300781 161.738281 269.300781 159.820312 268.132812 158.652344 Z M 229.917969 120.441406 " fill-opacity="1" fill-rule="nonzero"/></g><path fill="#d8b278" d="M 142.179688 165.898438 L 154.875 153.203125 L 116.664062 114.992188 C 115.496094 113.824219 113.578125 113.824219 112.410156 114.992188 L 103.964844 123.433594 C 102.800781 124.601562 102.800781 126.519531 103.964844 127.6875 Z M 142.179688 165.898438 " fill-opacity="1" fill-rule="nonzero"/><g clip-path="url(#b9bfc9d759)"><path fill="#d8b278" d="M 176.046875 174.375 L 163.351562 187.070312 L 201.53125 225.253906 C 202.699219 226.417969 204.617188 226.417969 205.785156 225.253906 L 214.226562 216.808594 C 215.394531 215.640625 215.394531 213.722656 214.226562 212.554688 Z M 176.046875 174.375 " fill-opacity="1" fill-rule="nonzero"/></g><path fill="#d8b278" d="M 169.128906 147.421875 L 130.917969 185.601562 C 129.75 186.769531 129.75 188.6875 130.917969 189.855469 L 139.363281 198.300781 C 140.53125 199.46875 142.449219 199.46875 143.617188 198.300781 L 181.828125 160.121094 Z M 169.128906 147.421875 " fill-opacity="1" fill-rule="nonzero"/><path fill="#d8b278" d="M 203 138.949219 L 241.179688 100.738281 C 242.347656 99.570312 242.347656 97.652344 241.179688 96.484375 L 232.734375 88.039062 C 231.566406 86.871094 229.648438 86.871094 228.484375 88.039062 L 190.300781 126.25 Z M 203 138.949219 " fill-opacity="1" fill-rule="nonzero"/><g fill="#d8b278" fill-opacity="1"><g transform="translate(96.292967, 308.784707)"><g><path d="M 11.5 0.453125 C 9.976562 0.453125 8.640625 0.296875 7.484375 -0.015625 C 6.328125 -0.335938 5.359375 -0.78125 4.578125 -1.34375 C 3.796875 -1.914062 3.207031 -2.609375 2.8125 -3.421875 C 2.414062 -4.234375 2.21875 -5.125 2.21875 -6.09375 C 2.21875 -7.03125 2.507812 -7.785156 3.09375 -8.359375 C 3.675781 -8.929688 4.507812 -9.21875 5.59375 -9.21875 C 5.632812 -8.25 5.78125 -7.316406 6.03125 -6.421875 C 6.28125 -5.535156 6.65625 -4.75 7.15625 -4.0625 C 7.65625 -3.382812 8.289062 -2.835938 9.0625 -2.421875 C 9.832031 -2.015625 10.765625 -1.8125 11.859375 -1.8125 C 13.941406 -1.8125 15.570312 -2.316406 16.75 -3.328125 C 17.925781 -4.335938 18.515625 -5.785156 18.515625 -7.671875 C 18.515625 -8.523438 18.390625 -9.273438 18.140625 -9.921875 C 17.898438 -10.578125 17.5 -11.179688 16.9375 -11.734375 C 16.382812 -12.285156 15.648438 -12.8125 14.734375 -13.3125 C 13.816406 -13.820312 12.675781 -14.359375 11.3125 -14.921875 C 9.875 -15.515625 8.613281 -16.144531 7.53125 -16.8125 C 6.457031 -17.488281 5.566406 -18.238281 4.859375 -19.0625 C 4.148438 -19.894531 3.617188 -20.816406 3.265625 -21.828125 C 2.921875 -22.835938 2.75 -23.976562 2.75 -25.25 C 2.75 -26.582031 3 -27.769531 3.5 -28.8125 C 4.007812 -29.863281 4.71875 -30.75 5.625 -31.46875 C 6.539062 -32.1875 7.617188 -32.734375 8.859375 -33.109375 C 10.097656 -33.492188 11.453125 -33.6875 12.921875 -33.6875 C 14.316406 -33.6875 15.550781 -33.539062 16.625 -33.25 C 17.695312 -32.957031 18.601562 -32.566406 19.34375 -32.078125 C 20.09375 -31.597656 20.660156 -31.046875 21.046875 -30.421875 C 21.429688 -29.796875 21.625 -29.140625 21.625 -28.453125 C 21.625 -27.453125 21.289062 -26.695312 20.625 -26.1875 C 19.96875 -25.6875 19.082031 -25.4375 17.96875 -25.4375 C 17.96875 -26.164062 17.878906 -26.878906 17.703125 -27.578125 C 17.523438 -28.285156 17.234375 -28.914062 16.828125 -29.46875 C 16.421875 -30.019531 15.882812 -30.46875 15.21875 -30.8125 C 14.550781 -31.164062 13.722656 -31.34375 12.734375 -31.34375 C 11.847656 -31.34375 11.050781 -31.21875 10.34375 -30.96875 C 9.644531 -30.71875 9.050781 -30.359375 8.5625 -29.890625 C 8.070312 -29.429688 7.695312 -28.875 7.4375 -28.21875 C 7.1875 -27.570312 7.0625 -26.847656 7.0625 -26.046875 C 7.0625 -25.128906 7.179688 -24.316406 7.421875 -23.609375 C 7.671875 -22.898438 8.078125 -22.257812 8.640625 -21.6875 C 9.210938 -21.125 9.957031 -20.585938 10.875 -20.078125 C 11.800781 -19.578125 12.9375 -19.054688 14.28125 -18.515625 C 15.644531 -17.953125 16.859375 -17.359375 17.921875 -16.734375 C 18.992188 -16.117188 19.898438 -15.425781 20.640625 -14.65625 C 21.390625 -13.894531 21.957031 -13.039062 22.34375 -12.09375 C 22.738281 -11.144531 22.9375 -10.070312 22.9375 -8.875 C 22.9375 -7.40625 22.664062 -6.09375 22.125 -4.9375 C 21.59375 -3.78125 20.828125 -2.800781 19.828125 -2 C 18.828125 -1.195312 17.625 -0.585938 16.21875 -0.171875 C 14.8125 0.242188 13.238281 0.453125 11.5 0.453125 Z M 11.5 0.453125 "/></g></g></g><g fill="#d8b278" fill-opacity="1"><g transform="translate(121.592797, 308.784707)"><g><path d="M 12.328125 -2 C 12.890625 -2 13.40625 -2.03125 13.875 -2.09375 C 14.34375 -2.15625 14.820312 -2.226562 15.3125 -2.3125 L 15.3125 -0.265625 C 15.113281 -0.179688 14.851562 -0.09375 14.53125 0 C 14.21875 0.09375 13.875 0.171875 13.5 0.234375 C 13.132812 0.304688 12.742188 0.359375 12.328125 0.390625 C 11.921875 0.429688 11.535156 0.453125 11.171875 0.453125 C 9.992188 0.453125 8.976562 0.328125 8.125 0.078125 C 7.28125 -0.171875 6.582031 -0.570312 6.03125 -1.125 C 5.488281 -1.6875 5.082031 -2.429688 4.8125 -3.359375 C 4.550781 -4.285156 4.421875 -5.414062 4.421875 -6.75 L 4.421875 -22.28125 L 0.890625 -22.28125 L 0.890625 -24.140625 C 1.441406 -24.140625 2.054688 -24.253906 2.734375 -24.484375 C 3.410156 -24.710938 4.003906 -25.09375 4.515625 -25.625 C 5.046875 -26.195312 5.472656 -26.878906 5.796875 -27.671875 C 6.128906 -28.472656 6.414062 -29.46875 6.65625 -30.65625 L 8.796875 -30.65625 L 8.796875 -24.9375 L 14.875 -24.9375 L 14.875 -22.28125 L 8.796875 -22.28125 L 8.796875 -6.609375 C 8.796875 -5.015625 9.113281 -3.847656 9.75 -3.109375 C 10.394531 -2.367188 11.253906 -2 12.328125 -2 Z M 12.328125 -2 "/></g></g></g><g fill="#d8b278" fill-opacity="1"><g transform="translate(137.967289, 308.784707)"><g><path d="M 1.6875 -1.953125 C 2.195312 -1.953125 2.679688 -1.984375 3.140625 -2.046875 C 3.609375 -2.117188 4.015625 -2.257812 4.359375 -2.46875 C 4.710938 -2.6875 4.988281 -3.003906 5.1875 -3.421875 C 5.394531 -3.835938 5.5 -4.382812 5.5 -5.0625 L 5.5 -19.8125 C 5.5 -20.488281 5.394531 -21.035156 5.1875 -21.453125 C 4.988281 -21.867188 4.710938 -22.191406 4.359375 -22.421875 C 4.015625 -22.648438 3.609375 -22.800781 3.140625 -22.875 C 2.679688 -22.945312 2.195312 -22.984375 1.6875 -22.984375 L 1.546875 -22.984375 L 1.546875 -24.9375 L 9.859375 -24.9375 L 9.859375 -5.296875 C 9.859375 -4.566406 9.957031 -3.984375 10.15625 -3.546875 C 10.363281 -3.109375 10.640625 -2.769531 10.984375 -2.53125 C 11.328125 -2.300781 11.734375 -2.144531 12.203125 -2.0625 C 12.671875 -1.988281 13.160156 -1.953125 13.671875 -1.953125 L 14.28125 -1.953125 L 14.28125 0 L 1.0625 0 L 1.0625 -1.953125 Z M 4.84375 -32.484375 C 4.84375 -33.023438 4.910156 -33.476562 5.046875 -33.84375 C 5.179688 -34.207031 5.367188 -34.5 5.609375 -34.71875 C 5.847656 -34.945312 6.125 -35.109375 6.4375 -35.203125 C 6.757812 -35.296875 7.113281 -35.34375 7.5 -35.34375 C 7.863281 -35.34375 8.203125 -35.296875 8.515625 -35.203125 C 8.835938 -35.109375 9.113281 -34.945312 9.34375 -34.71875 C 9.582031 -34.5 9.769531 -34.207031 9.90625 -33.84375 C 10.050781 -33.476562 10.125 -33.023438 10.125 -32.484375 C 10.125 -31.929688 10.050781 -31.472656 9.90625 -31.109375 C 9.769531 -30.753906 9.582031 -30.460938 9.34375 -30.234375 C 9.113281 -30.003906 8.835938 -29.835938 8.515625 -29.734375 C 8.203125 -29.640625 7.863281 -29.59375 7.5 -29.59375 C 7.113281 -29.59375 6.757812 -29.640625 6.4375 -29.734375 C 6.125 -29.835938 5.847656 -30.003906 5.609375 -30.234375 C 5.367188 -30.460938 5.179688 -30.753906 5.046875 -31.109375 C 4.910156 -31.472656 4.84375 -31.929688 4.84375 -32.484375 Z M 4.84375 -32.484375 "/></g></g></g><g fill="#d8b278" fill-opacity="1"><g transform="translate(152.842867, 308.784707)"><g><path d="M 12.328125 -2 C 12.890625 -2 13.40625 -2.03125 13.875 -2.09375 C 14.34375 -2.15625 14.820312 -2.226562 15.3125 -2.3125 L 15.3125 -0.265625 C 15.113281 -0.179688 14.851562 -0.09375 14.53125 0 C 14.21875 0.09375 13.875 0.171875 13.5 0.234375 C 13.132812 0.304688 12.742188 0.359375 12.328125 0.390625 C 11.921875 0.429688 11.535156 0.453125 11.171875 0.453125 C 9.992188 0.453125 8.976562 0.328125 8.125 0.078125 C 7.28125 -0.171875 6.582031 -0.570312 6.03125 -1.125 C 5.488281 -1.6875 5.082031 -2.429688 4.8125 -3.359375 C 4.550781 -4.285156 4.421875 -5.414062 4.421875 -6.75 L 4.421875 -22.28125 L 0.890625 -22.28125 L 0.890625 -24.140625 C 1.441406 -24.140625 2.054688 -24.253906 2.734375 -24.484375 C 3.410156 -24.710938 4.003906 -25.09375 4.515625 -25.625 C 5.046875 -26.195312 5.472656 -26.878906 5.796875 -27.671875 C 6.128906 -28.472656 6.414062 -29.46875 6.65625 -30.65625 L 8.796875 -30.65625 L 8.796875 -24.9375 L 14.875 -24.9375 L 14.875 -22.28125 L 8.796875 -22.28125 L 8.796875 -6.609375 C 8.796875 -5.015625 9.113281 -3.847656 9.75 -3.109375 C 10.394531 -2.367188 11.253906 -2 12.328125 -2 Z M 12.328125 -2 "/></g></g></g><g fill="#d8b278" fill-opacity="1"><g transform="translate(169.217359, 308.784707)"><g><path d="M 13.171875 0.453125 C 11.628906 0.453125 10.207031 0.210938 8.90625 -0.265625 C 7.601562 -0.742188 6.484375 -1.492188 5.546875 -2.515625 C 4.609375 -3.546875 3.875 -4.867188 3.34375 -6.484375 C 2.820312 -8.097656 2.5625 -10.046875 2.5625 -12.328125 C 2.5625 -14.816406 2.820312 -16.894531 3.34375 -18.5625 C 3.875 -20.238281 4.601562 -21.582031 5.53125 -22.59375 C 6.457031 -23.613281 7.550781 -24.332031 8.8125 -24.75 C 10.082031 -25.175781 11.453125 -25.390625 12.921875 -25.390625 C 13.890625 -25.390625 14.851562 -25.296875 15.8125 -25.109375 C 16.78125 -24.921875 17.648438 -24.628906 18.421875 -24.234375 C 19.191406 -23.835938 19.816406 -23.335938 20.296875 -22.734375 C 20.785156 -22.140625 21.03125 -21.441406 21.03125 -20.640625 C 21.03125 -19.566406 20.679688 -18.8125 19.984375 -18.375 C 19.285156 -17.9375 18.25 -17.71875 16.875 -17.71875 C 16.875 -18.445312 16.8125 -19.132812 16.6875 -19.78125 C 16.570312 -20.4375 16.363281 -21.007812 16.0625 -21.5 C 15.769531 -21.988281 15.367188 -22.375 14.859375 -22.65625 C 14.359375 -22.9375 13.710938 -23.078125 12.921875 -23.078125 C 12.023438 -23.078125 11.21875 -22.910156 10.5 -22.578125 C 9.78125 -22.242188 9.160156 -21.664062 8.640625 -20.84375 C 8.128906 -20.03125 7.738281 -18.929688 7.46875 -17.546875 C 7.195312 -16.171875 7.0625 -14.445312 7.0625 -12.375 C 7.0625 -9.070312 7.609375 -6.609375 8.703125 -4.984375 C 9.804688 -3.367188 11.609375 -2.5625 14.109375 -2.5625 C 15.546875 -2.5625 16.800781 -2.863281 17.875 -3.46875 C 18.945312 -4.082031 19.75 -4.863281 20.28125 -5.8125 C 20.507812 -5.632812 20.695312 -5.394531 20.84375 -5.09375 C 21 -4.789062 21.078125 -4.425781 21.078125 -4 C 21.078125 -3.46875 20.910156 -2.9375 20.578125 -2.40625 C 20.242188 -1.875 19.75 -1.394531 19.09375 -0.96875 C 18.4375 -0.550781 17.613281 -0.210938 16.625 0.046875 C 15.644531 0.316406 14.492188 0.453125 13.171875 0.453125 Z M 13.171875 0.453125 "/></g></g></g><g fill="#d8b278" fill-opacity="1"><g transform="translate(192.109844, 308.784707)"><g><path d="M 13.359375 -1.953125 L 13.359375 0 L 0.84375 0 L 0.84375 -1.953125 L 1.203125 -1.953125 C 1.734375 -1.953125 2.226562 -1.988281 2.6875 -2.0625 C 3.15625 -2.144531 3.554688 -2.300781 3.890625 -2.53125 C 4.234375 -2.769531 4.503906 -3.109375 4.703125 -3.546875 C 4.910156 -3.984375 5.015625 -4.566406 5.015625 -5.296875 L 5.015625 -30.234375 C 5.015625 -30.910156 4.910156 -31.457031 4.703125 -31.875 C 4.503906 -32.289062 4.226562 -32.613281 3.875 -32.84375 C 3.53125 -33.070312 3.125 -33.21875 2.65625 -33.28125 C 2.195312 -33.351562 1.710938 -33.390625 1.203125 -33.390625 L 0.84375 -33.390625 L 0.84375 -35.34375 L 9.40625 -35.34375 L 9.40625 -25.125 C 9.40625 -24.695312 9.394531 -24.25 9.375 -23.78125 C 9.363281 -23.320312 9.34375 -22.898438 9.3125 -22.515625 C 9.28125 -22.054688 9.25 -21.609375 9.21875 -21.171875 L 9.453125 -21.171875 C 10.835938 -23.984375 13.113281 -25.390625 16.28125 -25.390625 C 17.601562 -25.390625 18.773438 -25.210938 19.796875 -24.859375 C 20.816406 -24.503906 21.675781 -23.957031 22.375 -23.21875 C 23.070312 -22.488281 23.597656 -21.546875 23.953125 -20.390625 C 24.316406 -19.242188 24.5 -17.875 24.5 -16.28125 L 24.5 -5.296875 C 24.5 -4.566406 24.585938 -3.984375 24.765625 -3.546875 C 24.953125 -3.109375 25.203125 -2.769531 25.515625 -2.53125 C 25.835938 -2.300781 26.21875 -2.144531 26.65625 -2.0625 C 27.101562 -1.988281 27.582031 -1.953125 28.09375 -1.953125 L 28.234375 -1.953125 L 28.234375 0 L 20.140625 0 L 20.140625 -16.0625 C 20.140625 -17.070312 20.046875 -17.96875 19.859375 -18.75 C 19.679688 -19.539062 19.390625 -20.207031 18.984375 -20.75 C 18.585938 -21.300781 18.0625 -21.71875 17.40625 -22 C 16.757812 -22.28125 15.96875 -22.421875 15.03125 -22.421875 C 14.0625 -22.421875 13.222656 -22.238281 12.515625 -21.875 C 11.816406 -21.519531 11.234375 -21.015625 10.765625 -20.359375 C 10.304688 -19.703125 9.960938 -18.90625 9.734375 -17.96875 C 9.515625 -17.039062 9.40625 -16.007812 9.40625 -14.875 L 9.40625 -5.0625 C 9.40625 -4.382812 9.503906 -3.835938 9.703125 -3.421875 C 9.910156 -3.003906 10.1875 -2.6875 10.53125 -2.46875 C 10.882812 -2.257812 11.289062 -2.117188 11.75 -2.046875 C 12.21875 -1.984375 12.707031 -1.953125 13.21875 -1.953125 Z M 13.359375 -1.953125 "/></g></g></g><g fill="#d8b278" fill-opacity="1"><g transform="translate(221.633882, 308.784707)"><g><path d="M 12.328125 -2 C 12.890625 -2 13.40625 -2.03125 13.875 -2.09375 C 14.34375 -2.15625 14.820312 -2.226562 15.3125 -2.3125 L 15.3125 -0.265625 C 15.113281 -0.179688 14.851562 -0.09375 14.53125 0 C 14.21875 0.09375 13.875 0.171875 13.5 0.234375 C 13.132812 0.304688 12.742188 0.359375 12.328125 0.390625 C 11.921875 0.429688 11.535156 0.453125 11.171875 0.453125 C 9.992188 0.453125 8.976562 0.328125 8.125 0.078125 C 7.28125 -0.171875 6.582031 -0.570312 6.03125 -1.125 C 5.488281 -1.6875 5.082031 -2.429688 4.8125 -3.359375 C 4.550781 -4.285156 4.421875 -5.414062 4.421875 -6.75 L 4.421875 -22.28125 L 0.890625 -22.28125 L 0.890625 -24.140625 C 1.441406 -24.140625 2.054688 -24.253906 2.734375 -24.484375 C 3.410156 -24.710938 4.003906 -25.09375 4.515625 -25.625 C 5.046875 -26.195312 5.472656 -26.878906 5.796875 -27.671875 C 6.128906 -28.472656 6.414062 -29.46875 6.65625 -30.65625 L 8.796875 -30.65625 L 8.796875 -24.9375 L 14.875 -24.9375 L 14.875 -22.28125 L 8.796875 -22.28125 L 8.796875 -6.609375 C 8.796875 -5.015625 9.113281 -3.847656 9.75 -3.109375 C 10.394531 -2.367188 11.253906 -2 12.328125 -2 Z M 12.328125 -2 "/></g></g></g><g fill="#d8b278" fill-opacity="1"><g transform="translate(238.008374, 308.784707)"><g><path d="M 1.203125 -1.953125 C 1.734375 -1.953125 2.226562 -1.988281 2.6875 -2.0625 C 3.15625 -2.144531 3.554688 -2.300781 3.890625 -2.53125 C 4.234375 -2.769531 4.503906 -3.109375 4.703125 -3.546875 C 4.910156 -3.984375 5.015625 -4.566406 5.015625 -5.296875 L 5.015625 -30.234375 C 5.015625 -30.910156 4.910156 -31.457031 4.703125 -31.875 C 4.503906 -32.289062 4.226562 -32.613281 3.875 -32.84375 C 3.53125 -33.070312 3.125 -33.21875 2.65625 -33.28125 C 2.195312 -33.351562 1.710938 -33.390625 1.203125 -33.390625 L 0.609375 -33.390625 L 0.609375 -35.34375 L 9.40625 -35.34375 L 9.40625 -5.296875 C 9.40625 -4.566406 9.503906 -3.984375 9.703125 -3.546875 C 9.898438 -3.109375 10.171875 -2.769531 10.515625 -2.53125 C 10.859375 -2.300781 11.257812 -2.144531 11.71875 -2.0625 C 12.1875 -1.988281 12.6875 -1.953125 13.21875 -1.953125 L 13.8125 -1.953125 L 13.8125 0 L 0.609375 0 L 0.609375 -1.953125 Z M 1.203125 -1.953125 "/></g></g></g><g fill="#d8b278" fill-opacity="1"><g transform="translate(252.429736, 308.784707)"><g><path d="M 26.28125 -24.9375 L 26.28125 -22.984375 L 26.140625 -22.984375 C 25.691406 -22.984375 25.300781 -22.929688 24.96875 -22.828125 C 24.644531 -22.734375 24.347656 -22.550781 24.078125 -22.28125 C 23.816406 -22.007812 23.570312 -21.640625 23.34375 -21.171875 C 23.125 -20.703125 22.875 -20.09375 22.59375 -19.34375 L 15.53125 0.1875 C 14.988281 1.6875 14.472656 3.003906 13.984375 4.140625 C 13.503906 5.273438 13 6.242188 12.46875 7.046875 C 11.9375 7.859375 11.359375 8.53125 10.734375 9.0625 C 10.109375 9.59375 9.390625 10.015625 8.578125 10.328125 C 7.773438 10.648438 6.851562 10.867188 5.8125 10.984375 C 4.769531 11.109375 3.5625 11.171875 2.1875 11.171875 L 1.765625 11.171875 L 1.765625 8.96875 C 3.347656 8.96875 4.707031 8.734375 5.84375 8.265625 C 6.976562 7.796875 7.957031 7.148438 8.78125 6.328125 C 9.601562 5.515625 10.289062 4.550781 10.84375 3.4375 C 11.394531 2.320312 11.859375 1.113281 12.234375 -0.1875 L 3.640625 -20.515625 C 3.421875 -20.992188 3.210938 -21.390625 3.015625 -21.703125 C 2.816406 -22.015625 2.59375 -22.269531 2.34375 -22.46875 C 2.09375 -22.664062 1.804688 -22.800781 1.484375 -22.875 C 1.160156 -22.945312 0.769531 -22.984375 0.3125 -22.984375 L 0.1875 -22.984375 L 0.1875 -24.9375 L 11.359375 -24.9375 L 11.359375 -22.984375 L 11.21875 -22.984375 C 10.28125 -22.984375 9.578125 -22.800781 9.109375 -22.4375 C 8.648438 -22.070312 8.421875 -21.503906 8.421875 -20.734375 C 8.421875 -20.472656 8.445312 -20.210938 8.5 -19.953125 C 8.550781 -19.691406 8.648438 -19.382812 8.796875 -19.03125 L 12.203125 -10.75 C 12.410156 -10.21875 12.628906 -9.632812 12.859375 -9 C 13.097656 -8.375 13.316406 -7.753906 13.515625 -7.140625 C 13.722656 -6.523438 13.910156 -5.945312 14.078125 -5.40625 C 14.242188 -4.863281 14.359375 -4.394531 14.421875 -4 L 14.5625 -4 C 14.726562 -4.675781 14.957031 -5.503906 15.25 -6.484375 C 15.539062 -7.460938 15.882812 -8.507812 16.28125 -9.625 L 19.390625 -18.6875 C 19.523438 -19.070312 19.628906 -19.4375 19.703125 -19.78125 C 19.773438 -20.132812 19.8125 -20.4375 19.8125 -20.6875 C 19.8125 -21.488281 19.554688 -22.070312 19.046875 -22.4375 C 18.535156 -22.800781 17.765625 -22.984375 16.734375 -22.984375 L 16.609375 -22.984375 L 16.609375 -24.9375 Z M 26.28125 -24.9375 "/></g></g></g></svg>