<svg xmlns="http://www.w3.org/2000/svg" xmlns:xlink="http://www.w3.org/1999/xlink" width="500" zoomAndPan="magnify" viewBox="0 0 375 374.999991" height="500" preserveAspectRatio="xMidYMid meet" version="1.0"><defs><clipPath id="bd62647ae5"><path d="M 37.5 37.5 L 337.5 37.5 L 337.5 337.5 L 37.5 337.5 Z M 37.5 37.5 " clip-rule="nonzero"/></clipPath><clipPath id="beeeb87363"><path d="M 146 270 L 182 270 L 182 305.574219 L 146 305.574219 Z M 146 270 " clip-rule="nonzero"/></clipPath><clipPath id="55886f86f6"><path d="M 270 146 L 305.574219 146 L 305.574219 182 L 270 182 Z M 270 146 " clip-rule="nonzero"/></clipPath><clipPath id="19d140eaac"><path d="M 69.324219 193 L 105 193 L 105 229 L 69.324219 229 Z M 69.324219 193 " clip-rule="nonzero"/></clipPath><clipPath id="67d58bb5ef"><path d="M 193 69.324219 L 229 69.324219 L 229 105 L 193 105 Z M 193 69.324219 " clip-rule="nonzero"/></clipPath><clipPath id="93255f1162"><path d="M 146 69.324219 L 220 69.324219 L 220 144 L 146 144 Z M 146 69.324219 " clip-rule="nonzero"/></clipPath><clipPath id="9f7a14263a"><path d="M 231 155 L 305.574219 155 L 305.574219 229 L 231 229 Z M 231 155 " clip-rule="nonzero"/></clipPath><clipPath id="f0d9c68f5d"><path d="M 69.324219 146 L 144 146 L 144 220 L 69.324219 220 Z M 69.324219 146 " clip-rule="nonzero"/></clipPath><clipPath id="3986e8da74"><path d="M 155 231 L 229 231 L 229 305.574219 L 155 305.574219 Z M 155 231 " clip-rule="nonzero"/></clipPath></defs><g clip-path="url(#bd62647ae5)"><path fill="#d8b278" d="M 187.5 337.5 C 104.628906 337.5 37.5 269.90625 37.5 187.5 C 37.5 105.09375 104.628906 37.5 187.5 37.5 C 270.371094 37.5 337.5 104.628906 337.5 187.5 C 337.5 270.371094 269.90625 337.5 187.5 337.5 Z M 187.5 46.757812 C 109.722656 46.757812 46.757812 109.722656 46.757812 187.5 C 46.757812 265.277344 109.722656 328.242188 187.5 328.242188 C 265.277344 328.242188 328.242188 265.277344 328.242188 187.5 C 328.242188 109.722656 264.816406 46.757812 187.5 46.757812 Z M 187.5 46.757812 " fill-opacity="1" fill-rule="nonzero"/></g><path fill="#d8b278" d="M 125.265625 143.289062 L 143.289062 125.265625 L 127.261719 109.238281 C 125.605469 107.582031 122.882812 107.582031 121.226562 109.238281 L 109.238281 121.226562 C 107.582031 122.882812 107.582031 125.605469 109.238281 127.261719 Z M 125.265625 143.289062 " fill-opacity="1" fill-rule="nonzero"/><path fill="#d8b278" d="M 155.253906 173.292969 L 173.289062 155.257812 L 219.785156 201.757812 L 201.753906 219.792969 Z M 155.253906 173.292969 " fill-opacity="1" fill-rule="nonzero"/><path fill="#d8b278" d="M 249.8125 231.789062 L 231.789062 249.8125 L 247.730469 265.753906 C 249.386719 267.410156 252.109375 267.410156 253.765625 265.753906 L 265.753906 253.765625 C 267.410156 252.109375 267.410156 249.386719 265.753906 247.730469 Z M 249.8125 231.789062 " fill-opacity="1" fill-rule="nonzero"/><g clip-path="url(#beeeb87363)"><path fill="#d8b278" d="M 147.496094 285.988281 C 145.839844 287.644531 145.839844 290.363281 147.496094 292.023438 L 159.484375 304.011719 C 161.140625 305.667969 163.863281 305.667969 165.519531 304.011719 L 181.503906 288.070312 L 163.480469 270.046875 Z M 147.496094 285.988281 " fill-opacity="1" fill-rule="nonzero"/></g><path fill="#d8b278" d="M 193.570312 239.96875 L 240.039062 193.5 L 258.074219 211.535156 L 211.605469 258.003906 Z M 193.570312 239.96875 " fill-opacity="1" fill-rule="nonzero"/><g clip-path="url(#55886f86f6)"><path fill="#d8b278" d="M 304.011719 165.519531 C 305.667969 163.863281 305.667969 161.140625 304.011719 159.484375 L 292.023438 147.496094 C 290.363281 145.839844 287.644531 145.839844 285.988281 147.496094 L 270.046875 163.480469 L 288.070312 181.503906 Z M 304.011719 165.519531 " fill-opacity="1" fill-rule="nonzero"/></g><g clip-path="url(#19d140eaac)"><path fill="#d8b278" d="M 70.980469 209.472656 C 69.324219 211.128906 69.324219 213.851562 70.980469 215.507812 L 82.96875 227.496094 C 84.625 229.152344 87.347656 229.152344 89.003906 227.496094 L 104.988281 211.554688 L 86.964844 193.53125 Z M 70.980469 209.472656 " fill-opacity="1" fill-rule="nonzero"/></g><path fill="#d8b278" d="M 117.03125 163.453125 L 163.5 116.984375 L 181.535156 135.019531 L 135.066406 181.488281 Z M 117.03125 163.453125 " fill-opacity="1" fill-rule="nonzero"/><g clip-path="url(#67d58bb5ef)"><path fill="#d8b278" d="M 227.496094 89.003906 C 229.152344 87.347656 229.152344 84.625 227.496094 82.96875 L 215.507812 70.980469 C 213.851562 69.324219 211.128906 69.324219 209.472656 70.980469 L 193.53125 86.964844 L 211.554688 104.988281 Z M 227.496094 89.003906 " fill-opacity="1" fill-rule="nonzero"/></g><g clip-path="url(#93255f1162)"><path fill="#d8b278" d="M 201.734375 143.246094 L 219.757812 125.222656 L 165.519531 70.980469 C 163.863281 69.324219 161.140625 69.324219 159.484375 70.980469 L 147.496094 82.96875 C 145.839844 84.625 145.839844 87.347656 147.496094 89.003906 Z M 201.734375 143.246094 " fill-opacity="1" fill-rule="nonzero"/></g><g clip-path="url(#9f7a14263a)"><path fill="#d8b278" d="M 249.769531 155.230469 L 231.789062 173.296875 L 285.988281 227.496094 C 287.644531 229.152344 290.363281 229.152344 292.023438 227.496094 L 304.011719 215.507812 C 305.667969 213.851562 305.667969 211.128906 304.011719 209.472656 Z M 249.769531 155.230469 " fill-opacity="1" fill-rule="nonzero"/></g><g clip-path="url(#f0d9c68f5d)"><path fill="#d8b278" d="M 125.222656 219.757812 L 143.246094 201.734375 L 89.003906 147.496094 C 87.347656 145.839844 84.625 145.839844 82.96875 147.496094 L 70.980469 159.484375 C 69.324219 161.140625 69.324219 163.863281 70.980469 165.519531 Z M 125.222656 219.757812 " fill-opacity="1" fill-rule="nonzero"/></g><g clip-path="url(#3986e8da74)"><path fill="#d8b278" d="M 173.296875 231.789062 L 155.273438 249.8125 L 209.472656 304.011719 C 211.128906 305.667969 213.851562 305.667969 215.507812 304.011719 L 227.496094 292.023438 C 229.152344 290.363281 229.152344 287.644531 227.496094 285.988281 Z M 173.296875 231.789062 " fill-opacity="1" fill-rule="nonzero"/></g><path fill="#d8b278" d="M 163.480469 193.53125 L 109.238281 247.730469 C 107.582031 249.386719 107.582031 252.109375 109.238281 253.765625 L 121.226562 265.753906 C 122.882812 267.410156 125.605469 267.410156 127.261719 265.753906 L 181.503906 211.554688 Z M 163.480469 193.53125 " fill-opacity="1" fill-rule="nonzero"/><path fill="#d8b278" d="M 211.554688 181.503906 L 265.753906 127.261719 C 267.410156 125.605469 267.410156 122.882812 265.753906 121.226562 L 253.765625 109.238281 C 252.109375 107.582031 249.386719 107.582031 247.730469 109.238281 L 193.53125 163.480469 Z M 211.554688 181.503906 " fill-opacity="1" fill-rule="nonzero"/></svg>